<svg width="82" height="81" viewBox="599 54 82 81" xmlns="http://www.w3.org/2000/svg"><g stroke="#000" stroke-width=".5" fill-rule="evenodd"><path d="M640.035 56.473c-21.279 0-38.59 17.215-38.59 38.375s17.311 38.375 38.59 38.375c21.279 0 38.59-17.215 38.59-38.375s-17.311-38.375-38.59-38.375m0 78.077c-22.014 0-39.925-17.81-39.925-39.702 0-21.891 17.91-39.701 39.925-39.701 22.014 0 39.924 17.81 39.924 39.7 0 21.893-17.91 39.703-39.924 39.703"/><path d="M654.72 112.276l-14.02-8.053v-.003l4.671-8.045 9.35 16.101zm-15.353-8.06v.007l-14.01 8.041 9.341-16.09 4.669 8.041zM625.35 77.42l14.018 8.053v.005l-4.67 8.043-9.348-16.101zm15.351 8.06v-.005l14.012-8.043-9.342 16.09-4.67-8.043zm0 2.652l3.9 6.717-3.9 6.717V88.132zm-.667 17.24l13.998 8.041h-28.007l14.01-8.041zm-.667-3.81l-3.899-6.714 3.899-6.716v13.43zm.67-17.237l-13.999-8.041h28.008l-14.01 8.041zm17.654-9.368H622.38l11.548 19.89-11.548 19.892h35.31l-11.549-19.89 11.55-19.892z"/></g></svg>