<?xml version="1.0" encoding="UTF-8" standalone="no"?>
<svg width="157px" height="20px" viewBox="0 0 157 20" version="1.1" xmlns="http://www.w3.org/2000/svg" xmlns:xlink="http://www.w3.org/1999/xlink" xmlns:sketch="http://www.bohemiancoding.com/sketch/ns">
    <!-- Generator: Sketch 3.3 (11970) - http://www.bohemiancoding.com/sketch -->
    <title>5-assets/logo</title>
    <desc>Created with Sketch.</desc>
    <defs></defs>
    <g id="Page-1" stroke="none" stroke-width="1" fill="none" fill-rule="evenodd" sketch:type="MSPage">
        <g id="2-screenshots/uielements-12cols" sketch:type="MSArtboardGroup" transform="translate(-33.000000, -810.000000)" fill="#2C2C2C">
            <g id="header/.logo" sketch:type="MSLayerGroup" transform="translate(33.000000, 810.000000)">
                <path d="M2.63295408,14.4488 C3.47642857,16.0744 4.91265816,16.944 6.81347959,16.944 C8.77037245,16.944 10.0736327,16.0216 10.0736327,14.5296 C10.0736327,12.7936 8.77037245,12.1968 7.14189796,11.4656 L5.86507143,10.8952 C3.14961224,9.7016 1.3032602,8.2904 1.3032602,5.416 C1.3032602,2.596 3.39312245,0.616 6.43459694,0.616 C8.79840816,0.616 10.5366224,1.5664 11.7021071,3.5184 L9.5025051,4.9568 C8.79840816,3.7624 7.87403061,3.1656 6.48826531,3.1656 C4.99516327,3.1656 4.12685714,4.0344 4.12685714,5.3104 C4.12685714,6.7736 5.02159694,7.3432 7.03215816,8.2376 L8.30738265,8.8072 C11.106148,10.0552 12.950898,11.3296 12.950898,14.4488 C12.950898,17.8384 10.3459796,19.5464 6.84151531,19.5464 C3.71993878,19.5464 1.43783163,18.0296 0.190642857,15.668 L2.63295408,14.4488 L2.63295408,14.4488 Z" id="Shape" sketch:type="MSShapeGroup"></path>
                <path d="M19.7737234,3.0576 L18.5047908,0.4816 L30.6970867,0.4816 L29.4498051,3.0576 L19.7737234,3.0576 Z" id="Shape" sketch:type="MSShapeGroup"></path>
                <path d="M24.7363112,19.3008 L24.5737041,19.3008 L16.4801939,0.4816 L19.4135306,0.4816 L24.6265714,12.9288 C24.6265714,12.9288 29.8163827,0.4816 29.7883469,0.4816 L32.8546531,0.4816 L24.7363112,19.3008 L24.7363112,19.3008 Z" id="Shape" sketch:type="MSShapeGroup"></path>
                <path d="M123.838333,17.0848 L122.575728,19.6616 L134.707221,19.6616 L133.468033,17.0848 L123.838333,17.0848 Z" id="Shape" sketch:type="MSShapeGroup"></path>
                <path d="M128.776847,0.8424 L128.61424,0.8424 L120.522332,19.6616 L123.454066,19.6616 L128.667107,7.2144 C128.667107,7.2144 133.855316,19.6616 133.828082,19.6616 L136.89599,19.6616 L128.776847,0.8424 L128.776847,0.8424 Z" id="Shape" sketch:type="MSShapeGroup"></path>
                <path d="M37.6039031,0.4824 L37.7384745,0.4824 L46.7531582,10.868 L55.6613061,0.4824 L55.7974796,0.4824 L55.7974796,19.3016 L53.0531837,19.3016 L53.0531837,7.3432 L46.7531582,14.8544 L46.6185867,14.8544 L40.3465969,7.3432 L40.3465969,19.3016 L37.6039031,19.3016 L37.6039031,0.4824 Z" id="Shape" sketch:type="MSShapeGroup"></path>
                <path d="M60.5475306,0.86 L63.7516122,0.86 L68.9926888,10.4888 L74.1504592,0.86 L77.1935357,0.86 L70.4056888,13.4168 L70.4056888,19.3016 L67.4987857,19.3016 L67.4987857,13.4448 L60.5475306,0.86 Z" id="Shape" sketch:type="MSShapeGroup"></path>
                <path d="M94.5692704,19.3016 L91.1208776,19.3016 L87.9712653,14.8264 C87.5643469,14.8824 87.1013571,14.908 86.6399694,14.908 L84.8216531,14.908 L84.8216531,19.3016 L81.91475,19.3016 L81.91475,0.86 L86.6391684,0.86 C91.7192398,0.86 94.514801,3.6552 94.514801,7.912 C94.514801,10.7608 93.2379745,12.956 90.8204949,14.0688 L94.5692704,19.3016 L94.5692704,19.3016 Z M86.5318316,12.4152 C90.0875612,12.4152 91.5285969,10.7328 91.5285969,7.9128 C91.5285969,5.12 90.0627296,3.4376 86.5318316,3.4376 L84.8216531,3.4376 L84.8216531,12.4152 L86.5318316,12.4152 L86.5318316,12.4152 Z" id="Shape" sketch:type="MSShapeGroup"></path>
                <path d="M99.1030459,10.0824 C99.1030459,4.6328 103.339643,0.6168 108.635189,0.6168 C113.929133,0.6168 118.164128,4.6328 118.164128,10.0824 C118.164128,15.5328 113.929133,19.5464 108.635189,19.5464 C103.339643,19.5464 99.1030459,15.5328 99.1030459,10.0824 M115.15149,10.0824 C115.15149,6.1768 112.462464,3.2472 108.635189,3.2472 C104.80551,3.2472 102.115684,6.1768 102.115684,10.0824 C102.115684,13.9888 104.804709,16.916 108.635189,16.916 C112.461663,16.916 115.15149,13.988 115.15149,10.0824" id="Shape" sketch:type="MSShapeGroup"></path>
                <path d="M141.78702,0.86 L147.000061,0.86 C153.02774,0.86 156.720444,4.6312 156.720444,10.0816 C156.720444,15.532 153.056577,19.3008 147.000061,19.3008 L141.78702,19.3008 L141.78702,0.86 L141.78702,0.86 Z M146.836653,16.7248 C151.61474,16.7248 153.706204,13.988 153.706204,10.0816 C153.706204,6.176 151.61474,3.4368 146.836653,3.4368 L144.69152,3.4368 L144.69152,16.724 L146.836653,16.724 L146.836653,16.7248 Z" id="Shape" sketch:type="MSShapeGroup"></path>
            </g>
        </g>
    </g>
</svg>